<mxfile host="app.diagrams.net" modified="2023-10-05T12:03:29.937Z" agent="Mozilla/5.0 (Windows NT 10.0; Win64; x64) AppleWebKit/537.36 (KHTML, like Gecko) Chrome/117.0.0.0 Safari/537.36" etag="YleHpbvZS4UwEuGzHDi0" version="21.7.4" type="device">
  <diagram name="1 oldal" id="ouqEcHBLdlc2p5KTsxNf">
    <mxGraphModel dx="1434" dy="790" grid="1" gridSize="10" guides="1" tooltips="1" connect="1" arrows="1" fold="1" page="1" pageScale="1" pageWidth="827" pageHeight="1169" math="0" shadow="0">
      <root>
        <mxCell id="0" />
        <mxCell id="1" parent="0" />
        <mxCell id="l4q1xyiKDczFjCE2H8hS-1" value="iskola" style="rounded=0;whiteSpace=wrap;html=1;fillColor=#d5e8d4;strokeColor=#82b366;" parent="1" vertex="1">
          <mxGeometry x="350" y="380" width="120" height="60" as="geometry" />
        </mxCell>
        <mxCell id="l4q1xyiKDczFjCE2H8hS-5" value="név" style="ellipse;whiteSpace=wrap;html=1;fillColor=#f8cecc;strokeColor=#b85450;" parent="1" vertex="1">
          <mxGeometry x="500" y="390" width="70" height="40" as="geometry" />
        </mxCell>
        <mxCell id="l4q1xyiKDczFjCE2H8hS-7" value="ig" style="ellipse;whiteSpace=wrap;html=1;fillColor=#f8cecc;strokeColor=#b85450;" parent="1" vertex="1">
          <mxGeometry x="250" y="410" width="70" height="40" as="geometry" />
        </mxCell>
        <mxCell id="l4q1xyiKDczFjCE2H8hS-8" value="&lt;u&gt;id&lt;/u&gt;" style="ellipse;whiteSpace=wrap;html=1;fillColor=#f8cecc;strokeColor=#b85450;" parent="1" vertex="1">
          <mxGeometry x="280" y="300" width="70" height="40" as="geometry" />
        </mxCell>
        <mxCell id="l4q1xyiKDczFjCE2H8hS-12" value="" style="endArrow=none;html=1;rounded=0;" parent="1" source="l4q1xyiKDczFjCE2H8hS-1" target="l4q1xyiKDczFjCE2H8hS-7" edge="1">
          <mxGeometry width="50" height="50" relative="1" as="geometry">
            <mxPoint x="390" y="430" as="sourcePoint" />
            <mxPoint x="440" y="380" as="targetPoint" />
          </mxGeometry>
        </mxCell>
        <mxCell id="l4q1xyiKDczFjCE2H8hS-13" value="" style="endArrow=none;html=1;rounded=0;" parent="1" target="l4q1xyiKDczFjCE2H8hS-5" edge="1">
          <mxGeometry width="50" height="50" relative="1" as="geometry">
            <mxPoint x="470" y="410" as="sourcePoint" />
            <mxPoint x="440" y="380" as="targetPoint" />
          </mxGeometry>
        </mxCell>
        <mxCell id="l4q1xyiKDczFjCE2H8hS-14" value="" style="endArrow=none;html=1;rounded=0;entryX=0.25;entryY=0;entryDx=0;entryDy=0;" parent="1" source="l4q1xyiKDczFjCE2H8hS-8" target="l4q1xyiKDczFjCE2H8hS-1" edge="1">
          <mxGeometry width="50" height="50" relative="1" as="geometry">
            <mxPoint x="390" y="430" as="sourcePoint" />
            <mxPoint x="440" y="380" as="targetPoint" />
          </mxGeometry>
        </mxCell>
        <mxCell id="l4q1xyiKDczFjCE2H8hS-18" value="osztály" style="rounded=0;whiteSpace=wrap;html=1;fillColor=#d5e8d4;strokeColor=#82b366;" parent="1" vertex="1">
          <mxGeometry x="445" y="605.5" width="120" height="60" as="geometry" />
        </mxCell>
        <mxCell id="l4q1xyiKDczFjCE2H8hS-21" value="betűjel" style="ellipse;whiteSpace=wrap;html=1;fillColor=#f8cecc;strokeColor=#b85450;" parent="1" vertex="1">
          <mxGeometry x="620" y="615.5" width="70" height="40" as="geometry" />
        </mxCell>
        <mxCell id="l4q1xyiKDczFjCE2H8hS-23" value="&lt;u&gt;id&lt;/u&gt;" style="ellipse;whiteSpace=wrap;html=1;fillColor=#f8cecc;strokeColor=#b85450;" parent="1" vertex="1">
          <mxGeometry x="420" y="540" width="70" height="40" as="geometry" />
        </mxCell>
        <mxCell id="l4q1xyiKDczFjCE2H8hS-26" value="évfolyama" style="ellipse;whiteSpace=wrap;html=1;fillColor=#f8cecc;strokeColor=#b85450;" parent="1" vertex="1">
          <mxGeometry x="560" y="540" width="80" height="40" as="geometry" />
        </mxCell>
        <mxCell id="l4q1xyiKDczFjCE2H8hS-28" value="" style="endArrow=none;html=1;rounded=0;exitX=0.25;exitY=0;exitDx=0;exitDy=0;" parent="1" source="l4q1xyiKDczFjCE2H8hS-18" target="l4q1xyiKDczFjCE2H8hS-23" edge="1">
          <mxGeometry width="50" height="50" relative="1" as="geometry">
            <mxPoint x="520" y="525.5" as="sourcePoint" />
            <mxPoint x="470" y="585.5" as="targetPoint" />
          </mxGeometry>
        </mxCell>
        <mxCell id="l4q1xyiKDczFjCE2H8hS-29" value="" style="endArrow=none;html=1;rounded=0;entryX=0.858;entryY=0;entryDx=0;entryDy=0;entryPerimeter=0;" parent="1" source="l4q1xyiKDczFjCE2H8hS-26" target="l4q1xyiKDczFjCE2H8hS-18" edge="1">
          <mxGeometry width="50" height="50" relative="1" as="geometry">
            <mxPoint x="520" y="525.5" as="sourcePoint" />
            <mxPoint x="570" y="475.5" as="targetPoint" />
          </mxGeometry>
        </mxCell>
        <mxCell id="l4q1xyiKDczFjCE2H8hS-33" value="" style="endArrow=none;html=1;rounded=0;exitX=0;exitY=0.5;exitDx=0;exitDy=0;entryX=1;entryY=0.5;entryDx=0;entryDy=0;" parent="1" source="l4q1xyiKDczFjCE2H8hS-21" target="l4q1xyiKDczFjCE2H8hS-18" edge="1">
          <mxGeometry width="50" height="50" relative="1" as="geometry">
            <mxPoint x="520" y="525.5" as="sourcePoint" />
            <mxPoint x="570" y="475.5" as="targetPoint" />
          </mxGeometry>
        </mxCell>
        <mxCell id="7yVfzRL8SFphGZmPvMwC-3" style="edgeStyle=orthogonalEdgeStyle;rounded=0;orthogonalLoop=1;jettySize=auto;html=1;entryX=0;entryY=0.75;entryDx=0;entryDy=0;" edge="1" parent="1" source="7yVfzRL8SFphGZmPvMwC-2" target="l4q1xyiKDczFjCE2H8hS-18">
          <mxGeometry relative="1" as="geometry" />
        </mxCell>
        <mxCell id="7yVfzRL8SFphGZmPvMwC-4" style="edgeStyle=orthogonalEdgeStyle;rounded=0;orthogonalLoop=1;jettySize=auto;html=1;" edge="1" parent="1" source="7yVfzRL8SFphGZmPvMwC-2" target="l4q1xyiKDczFjCE2H8hS-1">
          <mxGeometry relative="1" as="geometry" />
        </mxCell>
        <mxCell id="7yVfzRL8SFphGZmPvMwC-2" value="osztálya" style="rhombus;whiteSpace=wrap;html=1;" vertex="1" parent="1">
          <mxGeometry x="290" y="505" width="80" height="80" as="geometry" />
        </mxCell>
        <mxCell id="7yVfzRL8SFphGZmPvMwC-6" value="név" style="ellipse;whiteSpace=wrap;html=1;" vertex="1" parent="1">
          <mxGeometry x="215" y="740" width="85" height="60" as="geometry" />
        </mxCell>
        <mxCell id="7yVfzRL8SFphGZmPvMwC-7" value="település" style="rounded=0;whiteSpace=wrap;html=1;" vertex="1" parent="1">
          <mxGeometry x="110" y="640" width="120" height="60" as="geometry" />
        </mxCell>
        <mxCell id="7yVfzRL8SFphGZmPvMwC-8" value="&lt;u&gt;id&lt;/u&gt;" style="ellipse;whiteSpace=wrap;html=1;" vertex="1" parent="1">
          <mxGeometry x="90" y="740" width="90" height="60" as="geometry" />
        </mxCell>
        <mxCell id="7yVfzRL8SFphGZmPvMwC-10" value="" style="endArrow=none;html=1;rounded=0;exitX=0.422;exitY=-0.017;exitDx=0;exitDy=0;exitPerimeter=0;entryX=0.25;entryY=1;entryDx=0;entryDy=0;" edge="1" parent="1" source="7yVfzRL8SFphGZmPvMwC-8" target="7yVfzRL8SFphGZmPvMwC-7">
          <mxGeometry width="50" height="50" relative="1" as="geometry">
            <mxPoint x="390" y="590" as="sourcePoint" />
            <mxPoint x="440" y="540" as="targetPoint" />
          </mxGeometry>
        </mxCell>
        <mxCell id="7yVfzRL8SFphGZmPvMwC-11" value="" style="endArrow=none;html=1;rounded=0;exitX=0.5;exitY=0;exitDx=0;exitDy=0;" edge="1" parent="1" source="7yVfzRL8SFphGZmPvMwC-6" target="7yVfzRL8SFphGZmPvMwC-7">
          <mxGeometry width="50" height="50" relative="1" as="geometry">
            <mxPoint x="390" y="590" as="sourcePoint" />
            <mxPoint x="440" y="540" as="targetPoint" />
          </mxGeometry>
        </mxCell>
        <mxCell id="7yVfzRL8SFphGZmPvMwC-13" style="edgeStyle=orthogonalEdgeStyle;rounded=0;orthogonalLoop=1;jettySize=auto;html=1;entryX=0;entryY=0.25;entryDx=0;entryDy=0;" edge="1" parent="1" source="7yVfzRL8SFphGZmPvMwC-12" target="l4q1xyiKDczFjCE2H8hS-1">
          <mxGeometry relative="1" as="geometry" />
        </mxCell>
        <mxCell id="7yVfzRL8SFphGZmPvMwC-14" style="edgeStyle=orthogonalEdgeStyle;rounded=0;orthogonalLoop=1;jettySize=auto;html=1;" edge="1" parent="1" source="7yVfzRL8SFphGZmPvMwC-12" target="7yVfzRL8SFphGZmPvMwC-7">
          <mxGeometry relative="1" as="geometry" />
        </mxCell>
        <mxCell id="7yVfzRL8SFphGZmPvMwC-12" value="települése&lt;br&gt;" style="rhombus;whiteSpace=wrap;html=1;" vertex="1" parent="1">
          <mxGeometry x="70" y="490" width="80" height="80" as="geometry" />
        </mxCell>
        <mxCell id="7yVfzRL8SFphGZmPvMwC-15" value="iskola" style="swimlane;fontStyle=0;childLayout=stackLayout;horizontal=1;startSize=30;horizontalStack=0;resizeParent=1;resizeParentMax=0;resizeLast=0;collapsible=1;marginBottom=0;whiteSpace=wrap;html=1;" vertex="1" parent="1">
          <mxGeometry x="340" y="710" width="140" height="110" as="geometry" />
        </mxCell>
        <mxCell id="7yVfzRL8SFphGZmPvMwC-16" value="id&lt;span style=&quot;white-space: pre;&quot;&gt;&#x9;&lt;/span&gt;&lt;br&gt;név&lt;br&gt;ig&lt;br&gt;településid&lt;br&gt;PK:id" style="text;strokeColor=none;fillColor=none;align=left;verticalAlign=middle;spacingLeft=4;spacingRight=4;overflow=hidden;points=[[0,0.5],[1,0.5]];portConstraint=eastwest;rotatable=0;whiteSpace=wrap;html=1;" vertex="1" parent="7yVfzRL8SFphGZmPvMwC-15">
          <mxGeometry y="30" width="140" height="80" as="geometry" />
        </mxCell>
        <mxCell id="7yVfzRL8SFphGZmPvMwC-19" value="osztály" style="swimlane;fontStyle=0;childLayout=stackLayout;horizontal=1;startSize=30;horizontalStack=0;resizeParent=1;resizeParentMax=0;resizeLast=0;collapsible=1;marginBottom=0;whiteSpace=wrap;html=1;" vertex="1" parent="1">
          <mxGeometry x="590" y="710" width="140" height="110" as="geometry" />
        </mxCell>
        <mxCell id="7yVfzRL8SFphGZmPvMwC-20" value="id&lt;br&gt;évfolyam&lt;br&gt;betűjel&lt;br&gt;iskolaid&lt;br&gt;PK:id" style="text;strokeColor=none;fillColor=none;align=left;verticalAlign=middle;spacingLeft=4;spacingRight=4;overflow=hidden;points=[[0,0.5],[1,0.5]];portConstraint=eastwest;rotatable=0;whiteSpace=wrap;html=1;" vertex="1" parent="7yVfzRL8SFphGZmPvMwC-19">
          <mxGeometry y="30" width="140" height="80" as="geometry" />
        </mxCell>
        <mxCell id="7yVfzRL8SFphGZmPvMwC-21" value="település" style="swimlane;fontStyle=0;childLayout=stackLayout;horizontal=1;startSize=30;horizontalStack=0;resizeParent=1;resizeParentMax=0;resizeLast=0;collapsible=1;marginBottom=0;whiteSpace=wrap;html=1;" vertex="1" parent="1">
          <mxGeometry x="465" y="840" width="140" height="110" as="geometry" />
        </mxCell>
        <mxCell id="7yVfzRL8SFphGZmPvMwC-22" value="id&lt;br&gt;név&lt;br&gt;PK: id" style="text;strokeColor=none;fillColor=none;align=left;verticalAlign=middle;spacingLeft=4;spacingRight=4;overflow=hidden;points=[[0,0.5],[1,0.5]];portConstraint=eastwest;rotatable=0;whiteSpace=wrap;html=1;" vertex="1" parent="7yVfzRL8SFphGZmPvMwC-21">
          <mxGeometry y="30" width="140" height="80" as="geometry" />
        </mxCell>
        <mxCell id="7yVfzRL8SFphGZmPvMwC-23" style="edgeStyle=orthogonalEdgeStyle;rounded=0;orthogonalLoop=1;jettySize=auto;html=1;entryX=0;entryY=0.5;entryDx=0;entryDy=0;" edge="1" parent="1" source="7yVfzRL8SFphGZmPvMwC-16" target="7yVfzRL8SFphGZmPvMwC-20">
          <mxGeometry relative="1" as="geometry" />
        </mxCell>
        <mxCell id="7yVfzRL8SFphGZmPvMwC-24" style="edgeStyle=orthogonalEdgeStyle;rounded=0;orthogonalLoop=1;jettySize=auto;html=1;" edge="1" parent="1" source="7yVfzRL8SFphGZmPvMwC-16" target="7yVfzRL8SFphGZmPvMwC-22">
          <mxGeometry relative="1" as="geometry">
            <mxPoint x="320" y="880" as="targetPoint" />
            <Array as="points">
              <mxPoint x="320" y="780" />
              <mxPoint x="320" y="850" />
              <mxPoint x="321" y="850" />
              <mxPoint x="321" y="910" />
            </Array>
          </mxGeometry>
        </mxCell>
      </root>
    </mxGraphModel>
  </diagram>
</mxfile>
